<svg xmlns="http://www.w3.org/2000/svg" version="1.1" xmlns:xlink="http://www.w3.org/1999/xlink" xmlns:svgjs="http://svgjs.dev/svgjs" width="1000" height="1000" viewBox="0 0 1000 1000"><rect width="1000" height="1000" fill="#ffffff"></rect><g transform="matrix(0.7,0,0,0.7,149.57575806583088,415.1543705313145)"><svg viewBox="0 0 396 96" data-background-color="#ffffff" preserveAspectRatio="xMidYMid meet" height="242" width="1000" xmlns="http://www.w3.org/2000/svg" xmlns:xlink="http://www.w3.org/1999/xlink"><g id="tight-bounds" transform="matrix(1,0,0,1,0.23999972275851178,0.08252909677574394)"><svg viewBox="0 0 395.52 95.8349310480175" height="95.8349310480175" width="395.52"><g><svg viewBox="0 0 638.9563084838755 154.81981635883903" height="95.8349310480175" width="395.52"><g transform="matrix(1,0,0,1,243.4363084838756,47.84157044854881)"><svg viewBox="0 0 395.52 59.136675461741426" height="59.136675461741426" width="395.52"><g><svg viewBox="0 0 395.52 59.136675461741426" height="59.136675461741426" width="395.52"><g><svg viewBox="0 0 395.52 59.136675461741426" height="59.136675461741426" width="395.52"><g transform="matrix(1,0,0,1,0,0)"><svg width="395.52" viewBox="3.6500000953674316 -33.5 227.38999938964844 34" height="59.136675461741426" data-palette-color="#32d150"><path d="M29.3-33L29.3-26.35 12.25-26.35 12.25-19.35 25.85-19.35 25.85-12.7 12.25-12.7 12.25 0 3.65 0 3.65-33 29.3-33ZM39.45 0L30.8 0 42.4-33 52.7-33 64.25 0 55.4 0 48.95-21.2 47.5-26.4 47.4-26.4 46.05-21.25 39.45 0ZM56.7-7.45L38.35-7.45 38.35-13.3 56.7-13.3 56.7-7.45ZM81-33.5L81-33.5Q85.6-33.5 89.12-32.08 92.65-30.65 95.25-27.9L95.25-27.9 91.1-22.35Q88.95-24.6 86.47-25.73 84-26.85 80.85-26.85L80.85-26.85Q79-26.85 77.85-26.45 76.7-26.05 76.2-25.35 75.7-24.65 75.7-23.75L75.7-23.75Q75.7-22.7 76.67-21.98 77.65-21.25 79.85-20.75L79.85-20.75 85.4-19.5Q90.35-18.35 92.65-16.15 94.95-13.95 94.95-10.3L94.95-10.3Q94.95-6.8 93.15-4.38 91.35-1.95 88.2-0.73 85.05 0.5 81 0.5L81 0.5Q77.7 0.5 74.7-0.23 71.7-0.95 69.3-2.3 66.9-3.65 65.25-5.4L65.25-5.4 69.4-11.15Q70.65-9.7 72.47-8.58 74.3-7.45 76.47-6.8 78.65-6.15 80.9-6.15L80.9-6.15Q82.65-6.15 83.82-6.5 85-6.85 85.55-7.55 86.1-8.25 86.1-9.2L86.1-9.2Q86.1-10.25 85.35-10.98 84.6-11.7 82.5-12.2L82.5-12.2 76.4-13.55Q73.6-14.2 71.42-15.28 69.25-16.35 68-18.18 66.75-20 66.75-22.75L66.75-22.75Q66.75-25.85 68.45-28.28 70.15-30.7 73.35-32.1 76.55-33.5 81-33.5ZM97.94-33L128.09-33 128.09-26.35 117.34-26.35 117.34 0 108.74 0 108.74-26.35 97.94-26.35 97.94-33ZM154.44-11.65L162.24-9.45Q161.29-6 159.19-3.78 157.09-1.55 154.19-0.53 151.29 0.5 147.79 0.5L147.79 0.5Q142.79 0.5 139.14-1.53 135.49-3.55 133.54-7.35 131.59-11.15 131.59-16.5L131.59-16.5Q131.59-21.85 133.54-25.65 135.49-29.45 139.14-31.48 142.79-33.5 147.74-33.5L147.74-33.5Q151.19-33.5 154.09-32.52 156.99-31.55 158.99-29.55 160.99-27.55 161.84-24.4L161.84-24.4 154.29-21.35Q153.59-24.45 152.02-25.6 150.44-26.75 148.04-26.75L148.04-26.75Q145.69-26.75 143.97-25.6 142.24-24.45 141.31-22.18 140.39-19.9 140.39-16.5L140.39-16.5Q140.39-13.15 141.24-10.85 142.09-8.55 143.81-7.4 145.54-6.25 148.09-6.25L148.09-6.25Q150.49-6.25 152.17-7.58 153.84-8.9 154.44-11.65L154.44-11.65ZM172.24 0L163.59 0 175.19-33 185.49-33 197.04 0 188.19 0 181.74-21.2 180.29-26.4 180.19-26.4 178.84-21.25 172.24 0ZM189.49-7.45L171.14-7.45 171.14-13.3 189.49-13.3 189.49-7.45ZM200.89-33L216.64-33Q222.54-33 225.81-30.23 229.09-27.45 229.09-22.85L229.09-22.85Q229.09-17.8 225.84-15.15 222.59-12.5 216.69-12.5L216.69-12.5 215.89-12.05 209.34-12.05 209.34 0 200.89 0 200.89-33ZM209.34-18.15L215.44-18.15Q217.94-18.15 219.19-19.15 220.44-20.15 220.44-22.35L220.44-22.35Q220.44-24.5 219.19-25.5 217.94-26.5 215.44-26.5L215.44-26.5 209.34-26.5 209.34-18.15ZM213.09-14.45L220.49-16.35 231.04 0 221.54 0 213.09-14.45Z" opacity="1" transform="matrix(1,0,0,1,0,0)" fill="#32d150" class="undefined-text-0" data-fill-palette-color="primary" id="text-0"></path></svg></g></svg></g></svg></g></svg></g><g><svg viewBox="0 0 229.47555868756953 154.81981635883903" height="154.81981635883903" width="229.47555868756953"><g><svg xmlns="http://www.w3.org/2000/svg" xmlns:xlink="http://www.w3.org/1999/xlink" version="1.1" x="0" y="0" viewBox="4.927999973297119 19.75897789001465 89.65300750732422 60.48601531982422" enable-background="new 0 0 100 100" xml:space="preserve" height="154.81981635883903" width="229.47555868756953" class="icon-icon-0" data-fill-palette-color="accent" id="icon-0"><path d="M92.033 51.425c-0.02 0.377-0.023 0.759-0.058 1.132 0.824 0.591 2.369 1.258 2.299 1.75-0.071 0.498-1.74 0.706-2.696 1.039-0.072 0.375-0.17 0.738-0.258 1.107 0.726 0.703 2.18 1.594 2.039 2.074-0.143 0.484-1.847 0.447-2.839 0.645-0.124 0.357-0.249 0.711-0.389 1.061 0.621 0.803 1.926 1.887 1.717 2.34-0.207 0.457-1.878 0.182-2.889 0.232-0.175 0.336-0.361 0.666-0.548 0.992 0.498 0.881 1.635 2.141 1.363 2.561-0.272 0.423-1.892-0.094-2.898-0.185-0.22 0.306-0.444 0.607-0.676 0.904 0.368 0.943 1.315 2.353 0.986 2.731-0.329 0.377-1.854-0.359-2.837-0.591-0.263 0.272-0.529 0.539-0.804 0.802 0.234 0.984 0.969 2.51 0.592 2.838-0.379 0.329-1.789-0.62-2.73-0.988-0.297 0.23-0.599 0.456-0.904 0.676 0.089 1.008 0.604 2.629 0.182 2.9-0.421 0.271-1.681-0.866-2.562-1.364-0.327 0.188-0.656 0.372-0.992 0.547-0.053 1.01 0.224 2.679-0.232 2.888-0.454 0.209-1.537-1.097-2.337-1.716-0.35 0.139-0.704 0.263-1.061 0.388-0.198 0.991-0.162 2.697-0.646 2.84-0.48 0.141-1.369-1.315-2.073-2.043-0.368 0.089-0.731 0.187-1.105 0.26-0.334 0.955-0.543 2.626-1.039 2.696-0.492 0.07-1.158-1.477-1.75-2.299-0.372 0.032-0.752 0.037-1.13 0.057-0.47 0.893-0.918 2.546-1.426 2.546s-0.954-1.653-1.426-2.546c-0.378-0.02-0.758-0.024-1.131-0.057-0.593 0.822-1.258 2.369-1.749 2.299-0.498-0.072-0.706-1.741-1.04-2.696-0.374-0.073-0.737-0.171-1.105-0.26-0.706 0.728-1.595 2.181-2.074 2.04-0.484-0.142-0.448-1.848-0.647-2.84-0.356-0.123-0.711-0.249-1.061-0.387-0.801 0.618-1.885 1.924-2.341 1.718-0.456-0.21-0.178-1.88-0.229-2.891-0.336-0.175-0.663-0.359-0.991-0.548-0.88 0.498-2.141 1.638-2.562 1.366-0.422-0.272 0.095-1.895 0.183-2.903-0.306-0.219-0.607-0.442-0.903-0.675-0.942 0.367-2.354 1.316-2.732 0.989-0.378-0.329 0.358-1.856 0.591-2.84-0.273-0.262-0.539-0.528-0.801-0.802-0.985 0.233-2.511 0.971-2.84 0.591-0.328-0.379 0.622-1.79 0.99-2.731-0.231-0.297-0.457-0.598-0.675-0.903-1.007 0.09-2.629 0.604-2.902 0.182-0.271-0.421 0.868-1.681 1.367-2.562-0.188-0.326-0.374-0.654-0.548-0.99-1.01-0.053-2.68 0.224-2.889-0.234-0.208-0.453 1.098-1.537 1.718-2.336-0.138-0.35-0.264-0.705-0.388-1.06-0.991-0.198-2.698-0.161-2.839-0.646-0.141-0.479 1.314-1.368 2.04-2.072-0.087-0.368-0.185-0.731-0.258-1.106-0.955-0.334-2.625-0.541-2.696-1.039-0.069-0.49 1.477-1.157 2.3-1.75-0.034-0.373-0.038-0.753-0.058-1.13-0.893-0.471-2.545-0.917-2.545-1.426 0-0.508 1.653-0.954 2.545-1.425 0.021-0.377 0.023-0.758 0.058-1.131-0.824-0.591-2.37-1.257-2.3-1.748 0.07-0.5 1.741-0.708 2.696-1.042 0.073-0.375 0.171-0.739 0.259-1.108-0.727-0.706-2.181-1.595-2.04-2.074 0.142-0.484 1.848-0.448 2.838-0.646 0.125-0.356 0.25-0.71 0.389-1.059-0.62-0.8-1.925-1.884-1.718-2.339 0.208-0.457 1.879-0.179 2.889-0.231 0.175-0.334 0.36-0.664 0.548-0.991-0.498-0.88-1.636-2.14-1.365-2.563 0.273-0.421 1.893 0.094 2.901 0.184 0.219-0.307 0.444-0.608 0.676-0.904-0.37-0.942-1.318-2.352-0.989-2.73 0.328-0.38 1.854 0.357 2.838 0.591 0.263-0.274 0.53-0.541 0.803-0.802-0.233-0.985-0.969-2.51-0.591-2.84 0.38-0.33 1.79 0.62 2.733 0.989 0.295-0.231 0.597-0.457 0.903-0.677-0.089-1.006-0.605-2.628-0.182-2.9 0.421-0.271 1.681 0.868 2.562 1.366 0.327-0.189 0.655-0.373 0.99-0.548 0.053-1.009-0.223-2.679 0.233-2.888 0.454-0.209 1.537 1.097 2.338 1.717 0.349-0.14 0.704-0.263 1.061-0.389 0.198-0.991 0.161-2.696 0.645-2.837 0.479-0.141 1.367 1.313 2.073 2.04 0.368-0.088 0.731-0.186 1.106-0.259 0.335-0.956 0.543-2.625 1.039-2.696 0.491-0.07 1.158 1.477 1.749 2.299 0.372-0.033 0.754-0.038 1.13-0.056 0.472-0.892 0.918-2.544 1.426-2.544s0.954 1.652 1.426 2.544c0.376 0.019 0.758 0.023 1.131 0.056 0.591-0.822 1.257-2.369 1.749-2.299 0.498 0.072 0.707 1.742 1.042 2.696 0.375 0.073 0.738 0.171 1.106 0.259 0.704-0.726 1.595-2.18 2.074-2.038 0.485 0.141 0.447 1.846 0.645 2.837 0.356 0.123 0.712 0.249 1.062 0.387 0.8-0.62 1.884-1.924 2.34-1.718 0.456 0.21 0.177 1.879 0.229 2.89 0.336 0.173 0.664 0.359 0.992 0.548 0.881-0.5 2.141-1.638 2.561-1.366 0.424 0.274-0.092 1.894-0.181 2.902 0.306 0.219 0.608 0.444 0.905 0.677 0.942-0.37 2.354-1.317 2.731-0.989 0.378 0.329-0.359 1.854-0.592 2.837 0.272 0.263 0.539 0.531 0.801 0.802 0.986-0.231 2.512-0.968 2.84-0.588 0.327 0.378-0.62 1.788-0.988 2.731 0.231 0.295 0.456 0.596 0.675 0.903 1.008-0.09 2.628-0.606 2.9-0.184 0.271 0.42-0.866 1.679-1.366 2.56 0.189 0.328 0.374 0.658 0.549 0.994 1.011 0.051 2.68-0.224 2.888 0.232 0.209 0.454-1.097 1.54-1.716 2.339 0.139 0.348 0.263 0.703 0.388 1.059 0.991 0.199 2.697 0.161 2.838 0.646 0.142 0.478-1.312 1.367-2.039 2.073 0.088 0.367 0.185 0.732 0.258 1.107 0.957 0.333 2.624 0.541 2.694 1.036 0.07 0.493-1.475 1.16-2.299 1.75 0.034 0.373 0.038 0.753 0.058 1.129 0.894 0.473 2.546 0.918 2.546 1.426C94.579 50.508 92.927 50.954 92.033 51.425zM64.333 29.771c-11.17 0-20.228 9.058-20.228 20.228 0 11.173 9.058 20.228 20.228 20.228 11.173 0 20.229-9.055 20.229-20.228C84.562 38.828 75.506 29.771 64.333 29.771zM64.241 43.237V32.973c-3.739 0-7.195 1.21-10.003 3.255l6.034 8.308C61.388 43.723 62.757 43.237 64.241 43.237zM57.481 49.999c0-0.727 0.121-1.431 0.332-2.088l-9.763-3.174c-0.538 1.66-0.833 3.426-0.833 5.262 0 1.835 0.295 3.605 0.833 5.261l9.764-3.171C57.603 51.43 57.481 50.728 57.481 49.999zM70.672 47.911l9.763-3.174c-1.118-3.451-3.312-6.419-6.187-8.509l-6.035 8.308C69.354 45.365 70.228 46.54 70.672 47.911zM68.213 55.312l6.035 8.307c2.874-2.091 5.068-5.059 6.187-8.51l-9.763-3.172C70.228 53.307 69.354 54.48 68.213 55.312zM64.333 46.034c-2.104 0-3.813 1.708-3.813 3.813s1.709 3.812 3.813 3.812c2.106 0 3.814-1.707 3.814-3.812S66.439 46.034 64.333 46.034zM54.238 63.619c2.808 2.047 6.264 3.254 10.003 3.254V56.608c-1.484 0-2.854-0.483-3.969-1.298L54.238 63.619z" fill="#37aa4c" data-fill-palette-color="accent"></path><g fill="#37aa4c" data-fill-palette-color="accent"><path d="M28.907 40.077H26.35c-1.066 0-1.932-0.865-1.932-1.932 0-1.066 0.865-1.932 1.932-1.932h2.557c1.066 0 1.932 0.865 1.932 1.932C30.838 39.212 29.973 40.077 28.907 40.077z" fill="#37aa4c" data-fill-palette-color="accent"></path><path d="M26.946 51.932H18.87c-1.066 0-1.932-0.865-1.932-1.932 0-1.066 0.865-1.932 1.932-1.932h8.077c1.066 0 1.932 0.865 1.932 1.932C28.878 51.066 28.013 51.932 26.946 51.932z" fill="#37aa4c" data-fill-palette-color="accent"></path><path d="M24.984 63.785H6.86c-1.066 0-1.932-0.865-1.932-1.932s0.865-1.932 1.932-1.932h18.124c1.066 0 1.932 0.865 1.932 1.932S26.051 63.785 24.984 63.785z" fill="#37aa4c" data-fill-palette-color="accent"></path></g></svg></g></svg></g></svg></g><defs></defs></svg><rect width="395.52" height="95.8349310480175" fill="none" stroke="none" visibility="hidden"></rect></g></svg></g></svg>